<svg width="32" height="32" viewBox="0 0 32 32" fill="none" xmlns="http://www.w3.org/2000/svg">
  <!-- 圆形背景 -->
  <circle cx="16" cy="16" r="16" fill="url(#gradient)"/>
  
  <!-- 大脑图标 -->
  <path d="M12 8C10.5 8 9.5 9 9.5 10.5C9.5 11 9.6 11.4 9.8 11.8C9.3 12.2 9 12.8 9 13.5C9 14.5 9.5 15.3 10.2 15.8C10.1 16.1 10 16.4 10 16.8C10 18.2 11 19.2 12.3 19.5C12.1 19.8 12 20.1 12 20.5C12 21.9 13.1 23 14.5 23H17.5C18.9 23 20 21.9 20 20.5C20 20.1 19.9 19.8 19.7 19.5C21 19.2 22 18.2 22 16.8C22 16.4 21.9 16.1 21.8 15.8C22.5 15.3 23 14.5 23 13.5C23 12.8 22.7 12.2 22.2 11.8C22.4 11.4 22.5 11 22.5 10.5C22.5 9 21.5 8 20 8C19.2 8 18.5 8.3 18 8.8C17.4 8.3 16.7 8 16 8C15.3 8 14.6 8.3 14 8.8C13.5 8.3 12.8 8 12 8Z" fill="white"/>
  
  <!-- 渐变定义 -->
  <defs>
    <linearGradient id="gradient" x1="0%" y1="0%" x2="100%" y2="100%">
      <stop offset="0%" style="stop-color:#8B5CF6;stop-opacity:1" />
      <stop offset="100%" style="stop-color:#3B82F6;stop-opacity:1" />
    </linearGradient>
  </defs>
</svg>